<?xml version="1.0" encoding="utf-8"?>
<!-- Generator: Adobe Illustrator 16.0.0, SVG Export Plug-In . SVG Version: 6.00 Build 0)  -->
<!DOCTYPE svg PUBLIC "-//W3C//DTD SVG 1.1//EN" "http://www.w3.org/Graphics/SVG/1.1/DTD/svg11.dtd">
<svg version="1.1" id="Capa_1" xmlns="http://www.w3.org/2000/svg" xmlns:xlink="http://www.w3.org/1999/xlink" x="0px" y="0px"
	 width="622px" height="381px" viewBox="84.5 115.5 622 381" enable-background="new 84.5 115.5 622 381" xml:space="preserve">
<g>
	<g>
		<g>
			<path fill="#C29E57" d="M652.992,394.453v98.016H702V345.445H139.008V144.633c0-6.378-2.391-12.155-7.172-17.332
				c-4.781-5.179-10.558-7.77-17.332-7.77s-12.551,2.59-17.332,7.77S90,138.258,90,144.633v347.836h49.008v-98.016H652.992z"/>
			<path fill="#C29E57" d="M216.105,245.039c12.351,0,23.109-4.383,32.273-13.148c9.165-8.767,13.746-19.326,13.746-31.676
				c0-12.354-4.582-22.912-13.746-31.676c-9.165-8.765-19.922-13.148-32.273-13.148s-22.911,4.383-31.676,13.148
				s-13.148,19.325-13.148,31.676s4.383,22.911,13.148,31.676S203.754,245.039,216.105,245.039z"/>
			<path fill="#C29E57" d="M702,308.391v-59.766c0-9.562-3.387-17.332-10.16-23.309c-6.777-5.977-15.344-9.762-25.699-11.355
				l-355.008-34.664h-2.391c-6.375,0-11.753,2.191-16.137,6.574s-6.574,9.762-6.574,16.137v69.328h-90.844
				c-15.141,0-22.711,6.176-22.711,18.527s7.57,18.527,22.711,18.527H702z"/>
		</g>
	</g>
</g>
</svg>
