<?xml version="1.0" encoding="utf-8"?>
<!-- Generator: Adobe Illustrator 16.0.0, SVG Export Plug-In . SVG Version: 6.00 Build 0)  -->
<!DOCTYPE svg PUBLIC "-//W3C//DTD SVG 1.1//EN" "http://www.w3.org/Graphics/SVG/1.1/DTD/svg11.dtd">
<svg version="1.1" id="Capa_1" xmlns="http://www.w3.org/2000/svg" xmlns:xlink="http://www.w3.org/1999/xlink" x="0px" y="0px"
	 width="319.031px" height="322px" viewBox="-61.669 5.807 319.031 322" enable-background="new -61.669 5.807 319.031 322"
	 xml:space="preserve">
<g>
	<path fill="#FFFFFF" d="M97.932,323.754c-86.35,0-156.601-70.251-156.601-156.602c0-86.351,70.251-156.602,156.601-156.602
		c86.351,0,156.602,70.251,156.602,156.602C254.533,253.503,184.282,323.754,97.932,323.754z M97.932,34.689
		c-73.039,0-132.462,59.423-132.462,132.462c0,73.042,59.423,132.463,132.462,132.463c73.041,0,132.463-59.422,132.463-132.463
		C230.395,94.112,170.973,34.689,97.932,34.689z"/>
</g>
<g>
	<path fill="#FFFFFF" d="M148.672,65.701l-26.323-0.042c-29.573,0-48.686,19.608-48.686,49.956v23.032H47.198
		c-2.287,0-4.139,1.855-4.139,4.141v33.373c0,2.286,1.854,4.138,4.139,4.138h26.465v84.207c0,2.287,1.852,4.139,4.141,4.139h34.53
		c2.285,0,4.137-1.854,4.137-4.139v-84.207h30.945c2.289,0,4.141-1.853,4.141-4.138l0.012-33.373c0-1.097-0.438-2.149-1.212-2.925
		c-0.774-0.779-1.83-1.216-2.927-1.216h-30.959v-19.526c0-9.383,2.24-14.147,14.465-14.147l17.732-0.006
		c2.285,0,4.137-1.854,4.137-4.139V69.842C152.804,67.557,150.951,65.705,148.672,65.701z"/>
</g>
</svg>
