<?xml version="1.0" encoding="utf-8"?>
<!-- Generator: Adobe Illustrator 16.0.0, SVG Export Plug-In . SVG Version: 6.00 Build 0)  -->
<!DOCTYPE svg PUBLIC "-//W3C//DTD SVG 1.1//EN" "http://www.w3.org/Graphics/SVG/1.1/DTD/svg11.dtd">
<svg version="1.1" id="Capa_1" xmlns="http://www.w3.org/2000/svg" xmlns:xlink="http://www.w3.org/1999/xlink" x="0px" y="0px"
	 width="317.738px" height="317.738px" viewBox="0 0 317.738 317.738" enable-background="new 0 0 317.738 317.738"
	 xml:space="preserve">
<g>
	<g>
		<g>
			<path fill="#FFFFFF" d="M194.821,62.996h-71.905c-33.088,0-59.92,26.833-59.92,59.92v71.905c0,33.088,26.833,59.921,59.92,59.921
				h71.905c33.088,0,59.921-26.833,59.921-59.921v-71.905C254.742,89.829,227.909,62.996,194.821,62.996z M236.766,194.822
				c0,23.13-18.815,41.946-41.945,41.946h-71.905c-23.129,0-41.945-18.816-41.945-41.946v-71.906
				c0-23.129,18.816-41.943,41.945-41.943h71.905c23.13,0,41.945,18.815,41.945,41.943V194.822L236.766,194.822z"/>
		</g>
	</g>
	<g>
		<g>
			<path fill="#FFFFFF" d="M158.868,110.933c-26.473,0-47.936,21.463-47.936,47.938c0,26.473,21.463,47.939,47.936,47.939
				c26.473,0,47.939-21.465,47.939-47.939C206.807,132.396,185.342,110.933,158.868,110.933z M158.868,188.83
				c-16.514,0-29.96-13.445-29.96-29.96c0-16.527,13.447-29.96,29.96-29.96c16.515,0,29.96,13.435,29.96,29.96
				C188.829,175.385,175.384,188.83,158.868,188.83z"/>
		</g>
	</g>
	<g>
		<g>
			<circle fill="#FFFFFF" cx="210.401" cy="107.338" r="6.387"/>
		</g>
	</g>
</g>
<g>
	<path fill="#FFFFFF" d="M158.869,315.471c-86.351,0-156.602-70.251-156.602-156.602S72.519,2.268,158.869,2.268
		c86.35,0,156.601,70.251,156.601,156.602S245.219,315.471,158.869,315.471z M158.869,26.407
		c-73.04,0-132.462,59.423-132.462,132.462c0,73.041,59.423,132.463,132.462,132.463c73.041,0,132.462-59.422,132.462-132.463
		C291.332,85.83,231.91,26.407,158.869,26.407z"/>
</g>
</svg>
