<?xml version="1.0" encoding="utf-8"?>
<!-- Generator: Adobe Illustrator 16.0.0, SVG Export Plug-In . SVG Version: 6.00 Build 0)  -->
<!DOCTYPE svg PUBLIC "-//W3C//DTD SVG 1.1//EN" "http://www.w3.org/Graphics/SVG/1.1/DTD/svg11.dtd">
<svg version="1.1" id="Capa_1" xmlns="http://www.w3.org/2000/svg" xmlns:xlink="http://www.w3.org/1999/xlink" x="0px" y="0px"
	 width="753.307px" height="242.484px" viewBox="0 0 753.307 242.484" enable-background="new 0 0 753.307 242.484"
	 xml:space="preserve">
<g>
	<path fill="#FFFFFF" d="M121.196,230.942C60.701,231.005,10.66,181.579,11.55,119.483C12.399,60.177,61.09,10.621,123.138,11.555
		c59.234,0.891,108.822,49.576,107.79,111.716C229.945,182.531,181.604,230.953,121.196,230.942 M62.807,149.827
		c0.143-0.032,0.287-0.066,0.432-0.103c0.047-0.662,0.132-1.326,0.132-1.99c0.008-16.547,0.001-33.095,0.011-49.643
		c0-3.361-0.565-6.323-4.429-7.408c-0.362-0.104-0.704-1.007-0.672-1.513c0.021-0.315,0.724-0.673,1.183-0.855
		c0.458-0.183,0.991-0.165,1.468-0.233c0-1.044,0.027-1.916-0.002-2.787c-0.206-5.815,1.997-10.494,6.741-13.861
		c5.137-3.645,12.896-2.608,16.602,2.219c0.558,0.726,0.966,1.981,0.749,2.809c-0.589,2.241-2.8,2.426-4.643,0.532
		c-3.389-3.479-7.917-3.496-11.283,0.013c-2.411,2.515-3.351,5.55-3.01,9.003c0.154,1.554,0.767,2.354,2.554,2.317
		c5.319-0.109,10.642-0.066,15.962,0c0.595,0.008,1.183,0.551,1.772,0.846c-0.375,0.622-0.656,1.339-1.153,1.837
		c-0.566,0.566-1.421,0.84-1.981,1.405c-1.229,1.243-0.795,2.708,0.079,3.814c0.345,0.436,1.695,0.441,2.397,0.16
		c1.556-0.619,3.127-1.362,4.452-2.373c5.161-3.941,7.713-9.396,8.609-15.694c0.061-0.432-0.529-1.222-0.994-1.412
		c-1.179-0.481-2.531-0.558-3.683-1.079c-2.848-1.288-5.819-2.45-8.369-4.204c-2.322-1.595-2.236-4.029,0.044-5.734
		c1.929-1.444,4.25-2.369,6.414-3.49c0.645-0.333,1.35-0.553,2.203-0.896c-0.58-0.734-0.979-1.303-1.44-1.814
		c-9.599-10.644-28.389-13.774-40.801-6.51c-14.573,8.528-20.79,23.521-18.214,39.356c1.34,8.229,4.336,15.859,8.52,23.021
		c6.427,11,12.949,21.938,19.436,32.902C62.172,148.933,62.5,149.372,62.807,149.827z M147.645,61.36
		c1.299,0.498,2.083,0.709,2.781,1.081c2.202,1.168,4.552,2.161,6.506,3.667c2.038,1.569,1.95,3.687,0.017,5.41
		c-1.2,1.067-2.605,2.028-4.086,2.631c-2.584,1.046-5.284,1.826-7.964,2.621c-0.957,0.281-1.365,0.645-1.192,1.699
		c0.589,3.62,1.696,7.04,3.738,10.104c2.824,4.229,6.439,7.348,11.634,8.328c1.205,0.227,1.581-0.263,1.863-1.205
		c0.67-2.24,0.134-3.285-2.685-4.703c-0.888-0.446-1.384-1.057-1-1.884c0.197-0.433,1.055-0.777,1.617-0.786
		c4.385-0.064,8.768-0.036,13.157-0.036c4.28,0,4.718-0.363,4.389-4.682c-0.308-4.017-2.23-7.188-6.006-8.789
		c-3.366-1.427-6.243-0.278-8.639,2.377c-0.989,1.098-2.645,1.139-3.633,0.275c-1.13-0.982-1.239-2.422-0.167-3.741
		c2.334-2.877,5.395-4.478,9.083-4.613c6.568-0.244,12.499,4.421,13.999,11.185c0.549,2.468,0.449,5.079,0.66,7.864
		c0.739,0.039,1.666-0.006,2.554,0.163c0.523,0.1,1.427,0.625,1.395,0.805c-0.126,0.633-0.466,1.565-0.942,1.727
		c-3.059,1.029-3.999,3.204-3.988,6.228c0.049,16.02,0.023,32.042,0.023,48.063v1.807c0.667-0.267,0.98-0.585,1.203-0.959
		c5.963-10.047,11.986-20.062,17.854-30.17c4.637-7.99,8.003-16.455,9.002-25.754c1.106-10.294-1.294-19.543-7.687-27.766
		c-12.678-16.306-33.564-16.32-47.003-6.768C151.884,57.129,149.999,59.223,147.645,61.36z M86.169,102.555
		c5.33,11.422,10.838,23.229,16.469,35.297c0.353-0.545,0.51-0.717,0.587-0.918c3.81-10.226,7.649-20.44,11.393-30.688
		c0.856-2.349,0.532-2.751-1.692-4.498c-0.374-0.292-0.634-0.965-0.606-1.44c0.017-0.28,0.704-0.743,1.094-0.746
		c5.553-0.052,11.104-0.052,16.66-0.004c0.397,0.002,1.036,0.396,1.127,0.727c0.107,0.386-0.126,1.053-0.444,1.345
		c-2.68,2.468-2.781,2.677-1.523,6.087c3.614,9.8,7.258,19.589,10.895,29.382c0.19,0.508,0.459,0.985,0.882,1.886
		c5.814-12.522,11.429-24.613,17.093-36.815c-0.692-0.232-1.117-0.401-1.553-0.517c-4.323-1.125-7.854-3.503-10.822-6.79
		c-4.005-4.435-6.201-9.704-7.113-15.539c-0.173-1.115-0.553-1.27-1.6-1.124c-2.595,0.357-5.22,0.797-7.826,0.761
		c-7.817-0.112-15.632-0.387-23.441-0.732c-1.256-0.057-1.705,0.017-1.911,1.374c-1,6.535-3.546,12.416-8.572,16.819
		C92.641,98.721,89.449,100.378,86.169,102.555z M49.099,48.208c0.077,0.142,0.154,0.282,0.233,0.423
		c12.505-6.274,25.043-5.86,37.755-0.006c0.07-0.891,0.032-1.476,0.175-2.012c0.578-2.176,0.886-4.504,1.89-6.469
		c2.693-5.273,9.556-7.317,14.81-4.616c0.67,0.344,1.433,1,1.617,1.66c0.18,0.645-0.111,1.884-0.583,2.138
		c-0.726,0.391-1.903,0.455-2.685,0.143c-4.614-1.841-8.736-0.013-10.29,4.707c-1.7,5.161,1.082,10.804,6.411,12.999
		c5.434,2.24,11.61,0.92,15.911-3.091c5.236-4.882,6.387-15.581,3.209-22.245c-4.086-8.562-11.843-12.478-20.66-10.303
		c-15.273,3.765-28.979,10.673-41.102,20.69C53.486,44.131,51.327,46.209,49.099,48.208z M193.006,48.421
		c-0.169-0.474-0.182-0.605-0.248-0.686c-0.312-0.346-0.628-0.692-0.967-1.012c-12.807-12.063-27.73-20.302-44.72-24.843
		c-3.086-0.823-6.168-1.199-9.325-0.587c-4.182,0.812-7.375,3.234-9.874,6.516c-2.729,3.588-4.291,7.478-4.114,12.28
		c0.139,3.764,0.273,7.353,2.277,10.558c6.119,9.791,17.574,10.575,24.404,0.763c2.828-4.069,0.386-11.553-5.111-12.479
		c-1.546-0.261-3.302,0.272-4.874,0.734c-1.396,0.41-2.503,0.299-3.12-1.001c-0.59-1.243-0.002-2.271,1.172-2.922
		c0.459-0.252,0.94-0.479,1.431-0.658c6.499-2.379,13.206,1.177,15.192,8.119c0.444,1.55,0.607,3.182,0.936,4.987
		C168.333,42.576,180.554,42.29,193.006,48.421z M54.524,198.604c-0.113,0.203-0.228,0.405-0.341,0.607
		c0.486,0.305,1.013,0.559,1.451,0.921c12.261,10.138,26.079,17.191,41.576,20.852c2.459,0.58,5.078,1.048,7.56,0.835
		c4.381-0.374,7.584-3.123,10.251-6.438c3.337-4.147,4.286-8.894,4.256-14.221c-0.057-9.88-7.779-17.368-17.539-16.121
		c-4.42,0.565-7.908,2.78-9.59,7.182c-0.652,1.711-0.228,2.717,1.419,3.578c0.31,0.16,0.767,0.188,0.937,0.433
		c0.295,0.43,0.543,0.97,0.561,1.472c0.006,0.199-0.638,0.521-1.025,0.608c-0.594,0.135-1.225,0.118-1.951,0.171
		c0.075,0.482,0.078,0.771,0.165,1.032c1.419,4.189,5.787,6.046,9.926,4.128c1.289-0.599,2.372-0.7,3.236,0.52
		c0.837,1.177,0.244,2.584-1.337,3.404c-6.358,3.3-13.892-0.045-16.156-7.31c-0.483-1.549-1.172-1.949-2.698-1.949
		c-9.169,0-18.341-0.117-27.51-0.146C56.651,198.157,55.587,198.45,54.524,198.604z M150.716,198.503
		c-0.557-0.06-1.029-0.049-1.465-0.173c-0.643-0.186-1.619-0.306-1.818-0.743c-0.455-0.985,0.468-1.305,1.256-1.664
		c1.57-0.715,2.236-1.933,1.865-3.698c-0.541-2.562-2.253-4.188-4.364-5.424c-6.867-4.02-15.632-1.593-19.917,5.117
		c-2.852,4.467-2.954,9.396-2.45,14.161c0.66,6.227,4.287,11.015,9.746,14.223c2.315,1.362,4.885,2.175,7.552,1.642
		c17.172-3.434,32.493-10.782,45.944-22.002c0.412-0.344,0.748-0.781,1.405-1.482c-1.012-0.071-1.572-0.145-2.127-0.145
		c-9.473,0.004-18.943,0.067-28.411-0.017c-1.786-0.019-2.501,0.543-3.043,2.227c-2.222,6.871-9.244,10.092-15.534,7.286
		c-1.961-0.876-2.616-1.916-2.076-3.279c0.517-1.307,1.741-1.555,3.691-0.745c0.271,0.111,0.538,0.235,0.816,0.318
		C145.883,205.37,150.208,202.762,150.716,198.503z M74.957,106.134c-0.168,0.034-0.332,0.066-0.497,0.099c0,1.096,0,2.19,0,3.287
		c0,26.13-0.006,52.258,0.017,78.384c0.001,1.45,0.132,2.919,0.408,4.34c0.337,1.738,2.253,3.697,3.736,3.396
		c1.175-0.239,2.404-1.317,3.133-2.355c0.984-1.412,1.612-3.104,2.226-4.737c4.451-11.854,8.879-23.714,13.238-35.603
		c0.297-0.805,0.254-1.988-0.124-2.751c-7.001-14.118-14.075-28.197-21.141-42.279C75.649,107.307,75.291,106.728,74.957,106.134z
		 M168.356,106.256c-0.175-0.062-0.353-0.126-0.532-0.189c-0.299,0.526-0.624,1.04-0.899,1.581
		c-6.92,13.712-13.817,27.438-20.784,41.13c-0.69,1.362-0.808,2.495-0.252,3.953c3.312,8.729,6.482,17.515,9.775,26.252
		c1.788,4.75,3.601,9.503,5.686,14.12c0.5,1.104,2.123,2.325,3.261,2.359c1.64,0.049,2.935-1.38,3.3-3.149
		c0.267-1.309,0.425-2.661,0.429-3.992c0.021-26.722,0.015-53.44,0.015-80.163C168.356,107.522,168.356,106.89,168.356,106.256z
		 M201.139,123.841c2.247,0,4.195-0.293,6.017,0.056c5.882,1.119,8.727,7.487,5.606,12.238c-0.128,0.196-0.258,0.39-0.399,0.574
		c-0.641,0.826-1.422,1.337-2.379,0.587c-0.905-0.713-0.508-1.499,0.037-2.3c1.679-2.463,1.516-4.842-0.38-6.653
		c-2.945-2.809-7.672-2.536-10.305,0.588c-3.588,4.264-3.375,10.076,0.668,13.904c3.584,3.397,7.994,4.516,12.766,3.626
		c5.225-0.972,9.308-5.104,9.953-9.624c1.305-9.173,1.525-18.353,0.442-27.575c-1.239-10.575-4.028-20.694-8.441-30.374
		c-0.19-0.417-0.436-0.808-0.656-1.212C216.118,94.842,209.937,109.624,201.139,123.841z M41.675,124.532
		c-9.09-14.639-15.406-29.652-12.951-47.063c-0.315,0.212-0.497,0.418-0.608,0.658c-5.802,12.479-9.107,25.601-9.361,39.354
		c-0.118,6.392,0.52,12.808,1.062,19.192c0.185,2.17,0.213,4.496,2.072,6.308c5.739,5.596,15.342,4.548,20.13-0.788
		c3.733-4.158,3.208-10.813-1.051-14.25c-2.651-2.142-6.41-2.062-9.022,0.191c-2.125,1.832-2.21,4.019-0.465,7.233
		c0.269,0.494-0.058,1.31-0.109,1.98c-0.682-0.091-1.764,0.056-1.979-0.309c-0.832-1.42-1.801-2.956-1.975-4.532
		c-0.673-6.008,5.557-9.597,10.246-8.851C38.842,123.845,39.999,124.163,41.675,124.532z M47.984,168.591
		c0.56,0.066,0.899,0.106,1.239,0.147c3.091,0.367,5.704,1.653,7.659,4.103c1.112,1.396,0.963,2.911-0.266,3.872
		c-1.15,0.899-2.479,0.744-3.714-0.569c-1.486-1.582-3.258-2.573-5.428-2.263c-3.133,0.451-5.116,2.497-6.14,5.363
		c-0.986,2.753-1.097,5.487,1.184,7.821c0.979,1.002,1.737,2.254,2.815,3.111c1.333,1.063,2.789,2.208,4.377,2.657
		c4.272,1.215,8.29,0.423,11.904-2.303c1.22-0.918,1.809-1.916,1.796-3.509c-0.075-8.003,0.007-16.009-0.079-24.013
		c-0.015-1.211-0.404-2.55-1.012-3.599c-4.46-7.672-9.019-15.286-13.552-22.913c-0.283-0.475-0.625-0.915-1.24-1.803
		c-0.242,4.658-1.749,8.266-4.931,11.102C54.225,151.621,56.132,159.599,47.984,168.591z M193.901,136.401
		c-0.504,0.65-0.705,0.857-0.848,1.1c-3.938,6.624-7.89,13.24-11.777,19.896c-0.382,0.656-0.496,1.549-0.496,2.335
		c-0.037,8.881-0.021,17.762-0.021,26.643c0,4.404,0.705,5.347,5.013,6.441c1.008,0.256,2.063,0.417,3.105,0.455
		c4.69,0.169,8.003-2.144,10.758-5.766c2.418-3.174,2.83-6.774,0.69-10.15c-2.704-4.269-7.134-4.812-10.741-1.318
		c-1.175,1.139-2.949,1.297-3.932,0.359c-1.07-1.027-1.021-2.549,0.135-3.922c1.922-2.29,4.47-3.447,7.757-3.983
		c-4.541-3.392-5.982-7.717-4.709-12.815c1.277-5.118,4.761-8.234,10.128-9.738C195.983,143.36,194.503,140.325,193.901,136.401z
		 M101.694,62.747c0.758,2.9,1.779,5.611,2.093,8.402c0.218,1.931,1.091,2.367,2.606,2.467c5.642,0.369,11.284,0.955,16.929,0.98
		c4.413,0.021,8.827-0.658,13.242-1.038c1.318-0.115,1.958-0.649,2.083-2.184c0.158-1.95,0.822-3.861,1.318-5.776
		c0.243-0.935,0.606-1.838,0.837-2.513c-3.342-0.673-6.489-1.652-9.686-1.877c-7.719-0.547-15.468-1.265-23.118,0.922
		C106.028,62.693,103.859,62.557,101.694,62.747z M121.377,118.144c-0.411,0.984-0.666,1.478-0.828,1.997
		c-1.791,5.734-3.569,11.474-5.348,17.21c-1.571,5.069-3.151,10.135-4.703,15.212c-0.528,1.726-0.286,2.121,1.337,2.127
		c6.896,0.021,13.795-0.004,20.692,0.018c1.422,0.006,1.721-0.723,1.431-1.916c-0.113-0.451-0.303-0.882-0.461-1.321
		c-3.423-9.435-6.847-18.868-10.273-28.303C122.672,121.655,122.113,120.147,121.377,118.144z M206.425,178.345
		c0.643-0.912,1.049-1.38,1.337-1.909c2.446-4.51,4.763-9.093,7.333-13.524c1.688-2.904,1.155-5.418-0.624-7.933
		c-0.47-0.662-0.983-1.304-1.51-1.926c-2.157-2.545-5.122-3.389-8.227-4.199c-6.017-1.572-12.416,2.386-13.375,8.523
		c-0.639,4.088,1.427,7.846,4.962,9.03c4.504,1.51,7.981-1.254,7.595-5.93c-0.049-0.597,0.679-1.256,1.049-1.885
		c0.585,0.512,1.548,0.933,1.696,1.548c0.955,4.027-1.288,7.771-5.244,9.06c-0.451,0.147-0.884,0.349-1.574,0.624
		C203.062,171.936,205.178,174.564,206.425,178.345z M42.833,169.784c-0.781-0.132-1.157-0.198-1.528-0.258
		c-4.748-0.773-7.745-4.991-6.685-9.345c0.255-1.047,0.679-1.84,1.862-1.533c1.027,0.265,1.158,1.051,0.948,2.082
		c-0.6,2.974,1.217,5.441,4.231,5.908c3.711,0.571,7.148-1.704,8.082-5.354c1.038-4.052-0.572-8.394-4.049-10.754
		c-3.27-2.22-6.736-2.279-10.529-1.356c-4.204,1.023-6.996,3.494-9.04,7.094c-0.58,1.021-0.741,2.017-0.156,3.138
		c3.015,5.784,5.987,11.59,8.992,17.375c0.224,0.432,0.596,0.791,1.168,1.525C37.367,174.562,39.595,171.963,42.833,169.784z
		 M94.689,182.378c0.12,0.104,0.243,0.211,0.362,0.318c5.927-2.933,11.895-2.777,17.85-0.135c0.05-0.32,0.086-0.39,0.065-0.431
		c-2.988-6.062-5.906-12.163-9.076-18.129c-0.346-0.648-2.149-0.671-3.279-0.675c-0.406-0.005-1.034,0.831-1.192,1.391
		c-1.249,4.428-2.406,8.882-3.59,13.327C95.443,179.487,95.069,180.932,94.689,182.378z M129.159,182.638
		c0.083,0.131,0.167,0.263,0.25,0.392c5.925-3.271,11.993-3.15,18.315-0.528c-0.162-0.835-0.222-1.23-0.318-1.613
		c-1.352-5.243-2.693-10.491-4.082-15.728c-0.216-0.822-0.13-2.014-1.546-1.924c-1.371,0.081-2.785-0.432-3.676,1.438
		c-2.636,5.529-5.482,10.954-8.244,16.421C129.603,181.598,129.39,182.126,129.159,182.638z M121.853,179.069
		c0.181-0.007,0.36-0.013,0.54-0.019c2.381-5.141,4.763-10.28,7.26-15.67h-15.106C117.064,168.785,119.458,173.927,121.853,179.069z
		 M121.113,29.13c3.118-3.438,6.096-6.724,9.152-10.098c-5.839-0.504-11.807-0.636-17.874,0.273
		C116.13,22.027,119.118,25.308,121.113,29.13z M121.461,214.238c-2.567,2.938-5.282,6.046-8.214,9.406
		c5.56,0.191,10.991,0.468,16.279-0.173C126.686,220.221,123.988,217.13,121.461,214.238z M121.448,51.952
		c-1.619,2.103-3.232,4.192-4.925,6.388h9.857C124.671,56.128,123.078,54.064,121.448,51.952z M213.758,149.503
		c1.414,1.771,2.802,3.507,4.475,5.604c0.914-3.127,1.732-5.935,2.652-9.091C218.185,147.339,215.975,148.418,213.758,149.503z
		 M143.96,71.42c0.139,0.156,0.284,0.312,0.423,0.465c1.444-0.875,3.001-1.613,4.265-2.694c0.506-0.432,0.771-1.867,0.434-2.403
		c-0.56-0.905-1.674-1.476-2.599-2.131c-0.09-0.064-0.573,0.19-0.673,0.395C144.828,67.074,144.022,69.154,143.96,71.42z
		 M98.154,71.833c0.228-0.203,0.451-0.406,0.676-0.608c-0.722-2.044-1.425-4.097-2.193-6.125c-0.082-0.217-0.704-0.482-0.812-0.397
		c-0.925,0.739-2.072,1.412-2.56,2.398c-0.277,0.558,0.32,1.951,0.943,2.465C95.363,70.515,96.821,71.098,98.154,71.833z
		 M23.92,153.909c1.466-1.739,2.577-3.057,3.768-4.467c-1.88-0.817-3.645-1.582-5.851-2.541
		C22.569,149.366,23.183,151.432,23.92,153.909z"/>
</g>
<g>
	<g>
		<polygon fill="#FFFFFF" points="309.786,48.883 303.217,83.072 296.648,48.883 291.653,48.883 291.291,91.382 295.008,91.382 
			294.956,56.78 301.58,91.382 304.914,91.382 311.551,56.711 311.604,91.382 315.202,91.382 314.78,48.883 		"/>
		<path fill="#FFFFFF" d="M345.071,87.608V67.653c0-2.294-0.212-4.654-2.758-6.089c-1.133-0.597-2.301-0.874-3.673-0.874h-0.107
			c-3.959,0-5.638,1.896-6.346,3.483c-0.746,1.618-0.746,2.975-0.746,6.253v0.41h3.375l-0.017-0.426
			c-0.05-1.294-0.134-3.46,0.498-4.836c0.355-0.814,0.989-1.645,2.989-1.645c0.847,0,1.516,0,2.13,0.461
			c1.242,0.845,1.24,2.348,1.238,3.8v3.341c-0.861,0.699-1.265,0.932-2.389,1.549c-0.523,0.295-1.06,0.574-1.6,0.855
			c-2.408,1.255-4.898,2.552-6.354,5.212c-0.748,1.401-1.111,2.991-1.111,4.857c0,3.566,1.627,7.375,6.196,7.375
			c2.674,0,4.497-1.233,5.511-2.02c0.192,0.521,0.404,0.778,0.765,1.085c0.863,0.79,1.943,0.934,3.761,0.934h0.41V88.2l-0.652,0.001
			C345.376,88.203,345.131,88.118,345.071,87.608z M341.712,75.316v10.358c-1.296,1.395-2.565,2.527-4.667,2.527
			c-3.034,0-3.486-2.592-3.486-4.137c0-2.867,1.103-4.656,3.923-6.372c0.404-0.229,0.819-0.443,1.24-0.663
			c0.566-0.295,1.142-0.596,1.708-0.928C340.889,75.851,341.318,75.588,341.712,75.316z"/>
		<path fill="#FFFFFF" d="M365.365,63.432l-0.07,0.083c-0.351,0.414-0.66,0.777-0.979,1.281v-3.93h-3.24v30.515h3.3V70.093
			l0.012-0.029c1.189-3.034,2.626-4.366,3.636-4.956c0.517-0.33,1.217-0.542,1.895-0.747l0.598-0.185v-4.329l-0.593,0.297
			C367.619,61.294,366.549,62.181,365.365,63.432z"/>
		<path fill="#FFFFFF" d="M395.142,62.418c-0.037-0.039-0.074-0.077-0.111-0.117c-1.053-1.17-2.588-1.788-4.438-1.788
			c-1.745,0-3.296,0.588-4.358,1.65c-1.866,1.805-2.063,4.185-2.129,4.98c-0.062,0.668-0.062,1.277-0.062,1.867v14.582
			c0,2.983,0.282,4.19,1.317,5.616c1.117,1.516,2.807,2.351,4.76,2.351c2.131,0,3.736-0.658,4.961-2.053v11.499h3.3V60.867h-3.239
			V62.418L395.142,62.418z M395.124,69.205c0.007,0.111,0.012,0.2,0.018,0.22l0.004,14.106l-0.047,0.306
			c-0.089,0.598-0.158,1.069-0.346,1.682c-0.504,1.375-1.834,2.979-3.925,2.979c-0.488,0-2.147-0.145-2.989-1.995
			c-0.497-1.163-0.497-2.496-0.497-5.15V69.306c0-1.695,0-3.158,1.073-4.448c0.939-1.042,1.895-1.163,2.529-1.163
			c0.107,0,1.086,0.018,2.014,0.638C394.924,65.659,395.069,68.235,395.124,69.205z"/>
		<path fill="#FFFFFF" d="M425.661,85.055c-0.264,0.707-0.601,1.375-0.929,1.844c-1.108,1.576-2.916,1.656-3.267,1.656
			c-0.855,0-1.295-0.206-1.474-0.312c-1.773-0.862-2.013-3.014-2.013-5.005V60.867h-3.301v23.316c0,1.618,0.099,3.475,1.257,5.019
			c1.044,1.476,2.824,2.357,4.764,2.357c1.692,0,3.41-0.708,4.718-1.951c0.09-0.09,0.171-0.174,0.243-0.253v2.026h3.356V60.867
			h-3.356L425.661,85.055L425.661,85.055z"/>
		<path fill="#FFFFFF" d="M451.988,60.69c-4.646,0-6.234,2.881-6.771,4.606c-0.371,1.294-0.371,2.411-0.371,2.889V83.77
			c0,1.704,0.112,2.479,0.495,3.441c1.004,2.867,3.686,3.765,3.987,3.857c0.77,0.237,1.738,0.373,2.658,0.373
			c0.971,0,3.924,0,5.877-2.583c1.155-1.521,1.383-2.933,1.383-4.854V80.23h-3.301l0.002,1.262c0.005,2.346,0.007,3.638-0.396,4.746
			c-0.204,0.618-0.569,0.98-0.719,1.13c-0.958,0.906-2.393,0.952-2.67,0.952c-2.03,0-3.272-0.852-3.794-2.589
			c-0.103-0.38-0.225-1.039-0.225-2.021v-6.91h11.102v-6.651c0.002-2.122,0.005-4.764-1.255-6.687
			C457.106,62.198,455.346,60.69,451.988,60.69z M448.147,69.07c0-1.775,0.117-3.46,1.552-4.574c0.876-0.67,1.934-0.742,2.349-0.742
			c1.086,0,1.882,0.408,2.35,0.742c1.03,0.789,1.49,2.127,1.49,4.338v5.021h-7.739L448.147,69.07L448.147,69.07z"/>
		<polygon fill="#FFFFFF" points="447.436,57.909 450.533,57.909 460.052,50.653 453.027,50.653 		"/>
		<path fill="#FFFFFF" d="M483.363,75.131c-2.122-1.77-3.755-3.292-4.38-4.086c-1.029-1.189-1.143-2.098-1.143-3.747
			c0-2.36,0.974-3.368,3.251-3.368c0.602,0,1.139,0.075,1.509,0.212c1.494,0.558,1.801,2.021,1.801,4.043v2.534h3.358V68.19
			c0.001-1.093,0.004-2.923-0.815-4.503c-1.014-1.949-2.96-2.938-5.792-2.938c-4.425,0-6.668,2.283-6.668,6.786
			c0,3.241,1.306,5.11,2.305,6.254c1.269,1.269,2.711,2.549,4.279,3.804l0.317,0.264c2.211,1.827,3.43,2.833,3.43,5.854
			c0,1.546-0.347,3.536-2.006,4.233c-0.611,0.285-1.229,0.318-1.641,0.318l-0.312-0.004c-0.446,0-1.375,0-2.415-0.545
			c-0.426-0.215-0.768-0.522-1.021-0.922c-0.768-1.176-0.764-2.981-0.761-4.303v-2.376h-3.3v2.948c0,2.713,0.325,3.879,0.92,5.066
			c0.257,0.576,0.46,0.846,0.676,1.127c0.521,0.521,1.208,1.012,1.381,1.125c1.239,0.731,2.802,1.119,4.52,1.119
			c1.943,0,3.182-0.563,3.72-0.809c2.421-1.168,3.598-3.451,3.598-6.981c0-3.291-1.185-5.245-2.188-6.312
			C485.137,76.547,484.231,75.826,483.363,75.131z"/>
		<path fill="#FFFFFF" d="M535.882,62.946c-0.88-0.941-2.323-2.079-4.844-2.079c-1.865,0-3.066,0.72-3.601,1.137
			c-1.867,1.312-2.802,3.544-2.774,6.634l0.001,15.073c0,1.724,0.102,3.706,1.314,5.431c1.597,2.3,4.23,2.479,5.002,2.479
			c2.484,0,3.981-1.173,4.797-2.151c0.072-0.086,0.147-0.173,0.222-0.262v2.175h3.183V48.883h-3.3V62.946z M531.629,88.555
			c-0.868,0-1.655-0.273-2.268-0.783c-1.297-1.142-1.397-2.601-1.397-4.535V68.834c0-0.692,0-1.41,0.22-2.062
			c0.515-1.653,1.866-2.722,3.445-2.722c0.775,0,1.403,0.165,2.025,0.527c1.678,1.055,2.047,3.286,2.187,4.125
			c0.021,0.129,0.043,0.207,0.041,0.192l0.006,15.688C535.537,86.495,534.054,88.555,531.629,88.555z"/>
		<path fill="#FFFFFF" d="M562.091,60.69c-4.646,0-6.232,2.881-6.77,4.606c-0.371,1.294-0.371,2.411-0.371,2.889V83.77
			c0,1.704,0.112,2.479,0.496,3.441c1.004,2.867,3.685,3.765,3.985,3.857c0.771,0.237,1.738,0.373,2.658,0.373
			c0.971,0,3.925,0,5.878-2.583c1.155-1.521,1.382-2.933,1.382-4.854V80.23h-3.3l0.001,1.262c0.005,2.346,0.008,3.638-0.396,4.746
			c-0.204,0.618-0.57,0.98-0.72,1.13c-0.957,0.906-2.392,0.952-2.67,0.952c-2.028,0-3.271-0.852-3.794-2.589
			c-0.102-0.38-0.224-1.039-0.224-2.021v-6.91h11.101v-6.651c0.003-2.122,0.006-4.764-1.255-6.687
			C567.209,62.198,565.448,60.69,562.091,60.69z M558.25,69.07c0-1.775,0.119-3.46,1.552-4.574c0.876-0.67,1.936-0.742,2.35-0.742
			c1.086,0,1.882,0.408,2.349,0.742c1.031,0.789,1.492,2.127,1.492,4.338v5.021h-7.741L558.25,69.07L558.25,69.07z"/>
		<rect x="584.883" y="48.883" fill="#FFFFFF" width="3.3" height="42.499"/>
		<path fill="#FFFFFF" d="M632.414,48.647l-7.763,42.734h3.906l2.186-12.691h8.043l2.127,12.691h3.906l-7.704-42.734H632.414z
			 M631.357,75.154l3.342-19.188c0.029-0.206,0.062-0.414,0.093-0.624c0.05,0.311,0.103,0.618,0.158,0.927l3.168,18.885
			L631.357,75.154L631.357,75.154z"/>
		<polygon fill="#FFFFFF" points="642.94,38.729 635.979,38.729 630.39,45.983 633.488,45.983 		"/>
		<path fill="#FFFFFF" d="M668.003,60.513c-1.033,0-3.013,0.245-4.657,1.89c-0.121,0.122-0.263,0.262-0.424,0.446v-1.982h-3.3
			v30.515h3.3V66.911c0.322-0.749,0.434-0.956,0.695-1.327c0.899-1.294,2.341-2.065,3.866-2.065l0.109-0.002
			c1.896,0,2.632,1.386,2.853,1.953c0.146,0.479,0.193,0.986,0.229,1.355c0.021,0.2,0.037,0.356,0.047,0.356l0.001-0.001v24.2h3.3
			v-24.26c0-1.01-0.093-1.768-0.31-2.531C673.018,62.108,670.888,60.584,668.003,60.513z"/>
		<path fill="#FFFFFF" d="M704.366,60.867h-3.36v1.667c-0.832-0.886-2.272-1.962-4.549-1.962c-1.42,0-4.85,0.383-6.058,3.946
			c-0.364,1.152-0.435,2.013-0.435,3.193v14.995c0,2.765,0,5.896,2.853,7.67c1.458,0.9,3.092,0.946,3.403,0.946
			c2.358,0,3.881-1.146,4.784-2.008v3.899c0,1.095-0.111,1.555-0.32,2.021c-0.945,2.17-3.683,2.232-3.99,2.232
			c-0.594,0-2.582-0.107-3.29-1.474c-0.273-0.587-0.316-1.289-0.344-1.708c-0.012-0.187-0.023-0.328-0.042-0.401l-0.076-0.312
			h-3.301l0.029,0.438c0.117,1.697,0.238,2.553,0.687,3.449c1.103,2.399,4.069,3.25,6.275,3.25c3.604,0,6.262-1.714,7.295-4.703
			c0.487-1.406,0.457-2.688,0.441-3.379L704.366,60.867z M696.812,88.082c-0.45,0-1.286,0-2.171-0.622
			c-1.376-1.058-1.376-2.877-1.376-4.635V69.128c0-1.865,0-3.795,1.643-4.909c0.795-0.509,1.847-0.523,1.974-0.523l0.103-0.001
			c2.341,0,3.742,1.907,4.084,3.724V84.01c-0.275,1.038-0.438,1.421-0.711,1.913C699.146,87.979,697.191,88.082,696.812,88.082z"/>
		<path fill="#FFFFFF" d="M727.215,60.69c-4.646,0-6.232,2.881-6.77,4.606c-0.37,1.294-0.37,2.411-0.37,2.889V83.77
			c0,1.704,0.112,2.479,0.495,3.441c1.004,2.867,3.685,3.765,3.985,3.857c0.771,0.237,1.739,0.373,2.658,0.373
			c0.972,0,3.925,0,5.878-2.583c1.155-1.521,1.382-2.933,1.382-4.854V80.23h-3.3l0.001,1.262c0.006,2.346,0.008,3.638-0.395,4.746
			c-0.204,0.618-0.57,0.98-0.72,1.13c-0.957,0.906-2.393,0.952-2.67,0.952c-2.029,0-3.271-0.852-3.795-2.589
			c-0.101-0.38-0.223-1.039-0.223-2.021v-6.91h11.1v-6.651c0.002-2.122,0.006-4.764-1.255-6.687
			C732.334,62.198,730.572,60.69,727.215,60.69z M723.375,69.07c0-1.775,0.118-3.46,1.552-4.574c0.876-0.67,1.935-0.742,2.35-0.742
			c1.086,0,1.881,0.408,2.348,0.742c1.032,0.789,1.492,2.127,1.492,4.338v5.021h-7.74L723.375,69.07L723.375,69.07z"/>
		<rect x="750.007" y="48.883" fill="#FFFFFF" width="3.3" height="42.499"/>
	</g>
	<g>
		<path fill="#FFFFFF" d="M365.202,138.189h-11.517c-0.115-0.575-0.191-1.264-0.153-1.914l1.837-0.613
			c1.339-0.421,1.76-1.95,1.798-3.021l0.076-4.975v-1.645h-14.081v1.645l0.153,6.161c0,0.994,0.268,1.34,1.071,1.529l3.252,0.842
			c0,0.498-0.077,1.531-0.23,1.991h-12.09c-0.115-0.575-0.191-1.226-0.153-1.837l2.104-0.766c1.072-0.421,1.531-1.53,1.531-2.756
			l0.077-5.166v-11.86c0-1.072-0.345-1.952-1.225-2.22c0,0-2.219-0.688-2.41-0.765c0-0.459,0-1.188,0.153-1.684h10.866
			c0.115,0.611,0.153,1.225,0.153,1.797l-2.066,0.535c-0.957,0.271-1.187,0.69-1.187,1.761v7.997h14.081l-0.038-7.117
			c0-1.07-0.498-2.296-1.492-2.641l-1.837-0.648c-0.038-0.459-0.076-1.188,0.039-1.683h10.637c0.038,0.648,0.038,1.301-0.038,1.796
			l-1.913,0.535c-0.728,0.192-1.072,0.459-1.072,1.532v12.664l0.115,6.046c0.039,0.996,0.229,1.529,0.804,1.646l2.984,0.765
			C365.432,136.696,365.394,137.691,365.202,138.189z"/>
		<path fill="#FFFFFF" d="M384.375,138.456c-6.006,0-9.603-3.1-9.603-10.443c0-5.664,4.477-11.061,9.948-11.061
			c6.506,0,9.76,3.445,9.76,10.714C394.479,133.253,390.114,138.456,384.375,138.456z M384.337,119.823
			c-4.398,0-5.011,4.4-5.011,8.036c0,4.171,1.069,7.537,5.661,7.537c4.209,0,4.897-3.751,4.897-7.77
			C389.886,123.879,389.121,119.823,384.337,119.823z"/>
		<path fill="#FFFFFF" d="M414.263,138.609c-5.129,0-7.613-0.536-7.538-6.313l0.077-12.091h-3.023v-1.683l6.544-5.51h0.804v4.286
			h7.001v2.907h-7.001v7.499l0.115,4.707c0.077,2.563,0.727,2.792,3.52,2.792c1.491,0,2.756-0.113,3.674-0.267l0.459,2.717
			C418.049,137.997,415.64,138.609,414.263,138.609z"/>
		<path fill="#FFFFFF" d="M431.866,128.012c0.267,6.006,3.174,7.001,7.116,7.001c1.451,0,3.633-0.191,5.509-0.651l0.729,2.45
			c-1.686,1.033-4.669,1.722-7.193,1.722c-6.657,0-10.522-1.799-10.522-10.37c0-6.083,3.865-11.324,9.833-11.324
			c6.008,0,8.304,3.864,8.304,9.872v1.302L431.866,128.012L431.866,128.012z M437.03,119.402c-2.909,0-4.976,2.334-5.203,6.236
			h9.144C440.971,121.66,439.898,119.402,437.03,119.402z"/>
		<path fill="#FFFFFF" d="M466.418,138.189h-11.211c-0.152-0.69-0.19-1.188-0.152-1.837l2.104-0.728
			c0.842-0.27,1.186-1.033,1.225-1.952l0.153-5.932v-15.839h-3.674v-2.144c1.531-0.346,4.478-0.805,6.236-0.805
			c1.033,0,1.605,0.421,1.605,1.57v17.217l0.154,6.734c0.038,0.65,0.076,0.88,0.535,0.996l3.177,0.647
			C466.571,136.773,466.571,137.653,466.418,138.189z"/>
		<path fill="#FFFFFF" d="M505.984,138.189h-12.972c-0.151-0.651-0.229-1.378-0.189-1.991l2.258-0.61
			c0.918-0.27,1.604-1.11,1.604-2.184l0.115-5.738v-12.357c0-0.842-0.574-1.416-1.301-1.684l-2.334-0.803
			c-0.038-0.536-0.038-1.149,0.153-1.683h11.517c6.198,0,9.528,2.142,9.528,6.731c0,3.176-2.029,4.937-4.325,5.739
			c0,0,0.038,0.116,0,0.116c2.105,0.307,6.275,1.683,6.275,6.505C516.315,134.821,513.293,138.189,505.984,138.189z
			 M503.996,113.815h-2.871v9.106h3.215c4.171,0,5.203-1.798,5.203-4.592C509.543,115.154,508.09,113.815,503.996,113.815z
			 M503.804,125.639h-2.679v2.064l0.154,7.691h4.018c3.825,0,6.197-1.108,6.197-4.859
			C511.494,126.711,509.009,125.639,503.804,125.639z"/>
		<path fill="#FFFFFF" d="M535.986,138.456c-6.008,0-9.604-3.1-9.604-10.443c0-5.664,4.478-11.061,9.948-11.061
			c6.504,0,9.757,3.445,9.757,10.714C546.087,133.253,541.726,138.456,535.986,138.456z M535.948,119.823
			c-4.4,0-5.014,4.4-5.014,8.036c0,4.171,1.072,7.537,5.662,7.537c4.209,0,4.897-3.751,4.897-7.77
			C541.495,123.879,540.73,119.823,535.948,119.823z"/>
		<path fill="#FFFFFF" d="M574.48,138.418c-1.569,0-2.832-0.688-2.985-2.944c-1.646,1.301-3.71,3.137-6.849,3.137
			c-5.776,0-6.353-2.793-6.353-6.391v-12.242h-3.365v-2.106c1.684-0.382,3.979-0.88,5.7-0.88c1.301,0,1.911,0.498,1.911,1.722v8.992
			l0.077,3.481c0.038,2.296,0.383,4.133,2.909,4.133c1.949,0,4.781-1.722,5.776-2.334l0.151-5.242v-7.766h-3.558v-2.067
			c1.685-0.382,4.056-0.918,5.814-0.918c1.263,0,1.914,0.459,1.914,1.722v9.069l0.192,7.271h3.71l0.308,1.837
			C578.804,137.461,576.585,138.418,574.48,138.418z"/>
		<path fill="#FFFFFF" d="M598.818,138.609c-5.128,0-7.614-0.536-7.537-6.313l0.077-12.091h-3.024v-1.683l6.544-5.51h0.804v4.286
			h7.001v2.907h-7.001v7.499l0.115,4.707c0.076,2.563,0.727,2.792,3.521,2.792c1.491,0,2.755-0.113,3.674-0.267l0.459,2.717
			C602.605,137.997,600.196,138.609,598.818,138.609z"/>
		<path fill="#FFFFFF" d="M623.424,138.189h-11.326c-0.114-0.536-0.151-1.226-0.151-1.876l2.371-0.804
			c0.65-0.229,1.109-1.148,1.148-1.913l0.113-5.854v-7.766h-3.749v-2.22c1.722-0.382,4.516-0.841,6.275-0.841
			c1.107,0,1.645,0.344,1.645,1.529v9.336l0.115,6.58c0,0.806,0.229,1.034,0.648,1.111l3.1,0.647
			C623.613,136.619,623.575,137.653,623.424,138.189z M617.569,114.045c-0.843,0-3.177-2.449-3.177-3.214
			c0-0.88,2.411-3.176,3.177-3.176c0.765,0,3.215,2.334,3.215,3.176C620.784,111.521,618.449,114.045,617.569,114.045z"/>
		<path fill="#FFFFFF" d="M654.304,146.606h-11.288c-0.152-0.613-0.114-1.76-0.114-1.99l1.952-0.649
			c1.301-0.421,1.605-1.722,1.605-3.1l0.077-4.63c-1.378,0.918-3.062,2.142-5.28,2.142c-3.863,0-8.57-1.186-8.57-10.177
			c0-7.04,4.631-11.134,10.293-11.134c2.717,0,5.854,0.459,7.92,1.034v10.521l0.19,13.928c0,1.033,0.192,1.263,0.842,1.416
			l2.524,0.497C654.455,144.731,654.455,145.765,654.304,146.606z M646.651,120.32c-0.843-0.192-1.952-0.574-3.751-0.574
			c-4.628,0-5.815,3.789-5.815,8.267c0,5.049,1.76,6.81,5.166,6.81c1.914,0,3.215-0.345,4.323-0.727l0.077-6.354V120.32
			L646.651,120.32z"/>
		<path fill="#FFFFFF" d="M681.243,138.418c-1.569,0-2.832-0.688-2.986-2.944c-1.645,1.301-3.71,3.137-6.847,3.137
			c-5.778,0-6.354-2.793-6.354-6.391v-12.242h-3.365v-2.106c1.684-0.382,3.979-0.88,5.7-0.88c1.302,0,1.911,0.498,1.911,1.722v8.992
			l0.077,3.481c0.038,2.296,0.382,4.133,2.909,4.133c1.95,0,4.782-1.722,5.777-2.334l0.15-5.242v-7.766h-3.559v-2.067
			c1.686-0.382,4.057-0.918,5.815-0.918c1.263,0,1.914,0.459,1.914,1.722v9.069l0.191,7.271h3.71l0.308,1.837
			C685.566,137.461,683.347,138.418,681.243,138.418z"/>
		<path fill="#FFFFFF" d="M699.766,128.012c0.268,6.006,3.177,7.001,7.116,7.001c1.454,0,3.636-0.191,5.511-0.651l0.727,2.45
			c-1.684,1.033-4.666,1.722-7.193,1.722c-6.656,0-10.521-1.799-10.521-10.37c0-6.083,3.862-11.324,9.833-11.324
			c6.006,0,8.302,3.864,8.302,9.872v1.302L699.766,128.012L699.766,128.012z M704.93,119.402c-2.906,0-4.973,2.334-5.203,6.236
			h9.146C708.872,121.66,707.801,119.402,704.93,119.402z"/>
	</g>
	<g>
		<path fill="#FFFFFF" d="M450.677,172.567h-1.218V170.3l0.948-0.031c3.723-0.138,5.652-1.593,5.652-5.147
			c0-3.014-1.456-4.977-5.247-5.079l-3.557-0.065v12.29l0.137,5.382c0,0.677,0.102,1.051,0.711,1.186l3.452,0.847
			c0,0.306-0.031,1.457-0.135,1.827h-11.173c-0.068-0.508-0.135-1.217-0.102-1.656l1.86-0.542c0.78-0.237,1.288-1.187,1.322-2.101
			l0.101-4.941v-10.937c0-0.543-0.271-1.117-0.812-1.354l-2.439-0.88c-0.032-0.271-0.032-1.086,0.138-1.525h12.019
			c4.739,0,7.922,2.168,7.922,7.179C460.258,169.183,457.041,172.567,450.677,172.567z"/>
		<path fill="#FFFFFF" d="M491.679,159.771c-0.439,0.169-0.915,0.338-0.915,1.354v11.308c0,7.244-5.553,9.479-9.783,9.479
			c-4.64,0-9.888-1.354-9.888-8.563V161.6c0-0.745-0.405-1.524-0.981-1.729l-2.031-0.745c0-0.304,0-1.184,0.137-1.558h9.852
			c0.067,0.509,0.067,1.288,0.033,1.729l-1.996,0.439c-0.678,0.135-0.914,0.439-0.914,1.049v12.121c0,5.011,3.386,6.365,6.297,6.365
			c3.353,0,5.893-1.66,5.893-7.177v-10.228c0-0.777-0.306-1.828-1.862-2.303l-1.49-0.439c0-0.304-0.066-1.184,0.067-1.558h9.176
			c0.102,0.509,0.102,1.22,0.102,1.626L491.679,159.771z"/>
		<path fill="#FFFFFF" d="M520.457,181.506h-18.823c-0.103-0.607-0.171-1.318-0.137-1.828l2.064-0.508
			c0.813-0.203,1.354-0.88,1.389-1.727l0.103-5.315v-10.631c0-0.812-0.34-1.285-0.882-1.488l-2.335-0.882
			c-0.034-0.475-0.034-1.083,0.135-1.558h17.844v5.485c-0.475,0.137-1.49,0.103-1.932,0.067c-0.405-2.064-1.117-2.879-2.742-2.945
			l-6.263-0.169v8.227l9.176-0.169v2.845l-9.176-0.171v1.457l0.169,6.839l5.79-0.101c2.438-0.068,3.926-1.561,4.571-3.42l1.76,0.304
			L520.457,181.506z"/>
		<path fill="#FFFFFF" d="M541.245,181.506h-11.478c-0.137-0.573-0.205-1.217-0.171-1.76l1.997-0.542
			c0.814-0.237,1.423-0.979,1.423-1.929l0.104-5.079V161.26c0-0.745-0.509-1.252-1.151-1.488l-2.064-0.711
			c-0.034-0.476-0.034-1.018,0.135-1.491h10.192c5.483,0,8.43,1.896,8.43,5.959c0,2.812-1.794,4.368-3.827,5.079
			c0,0,0.034,0.101,0,0.101c1.862,0.271,5.554,1.491,5.554,5.756C550.387,178.526,547.712,181.506,541.245,181.506z M539.485,159.94
			h-2.54v8.057h2.845c3.688,0,4.603-1.592,4.603-4.062C544.393,161.126,543.107,159.94,539.485,159.94z M539.316,170.402h-2.371
			v1.828l0.135,6.805h3.556c3.387,0,5.485-0.982,5.485-4.3C546.121,171.351,543.919,170.402,539.316,170.402z"/>
		<path fill="#FFFFFF" d="M577.336,181.506H559.63c-0.067-0.54-0.134-1.217-0.1-1.76l1.894-0.542
			c0.78-0.203,1.354-0.946,1.354-1.929l0.103-5.045v-10.361c0-0.88-0.508-1.794-1.22-2.064l-1.862-0.678
			c0-0.405,0-1.117,0.138-1.558h9.581c0.065,0.611,0.101,1.22,0.065,1.729l-1.591,0.371c-0.914,0.237-1.286,0.575-1.286,1.489
			v11.004l0.169,6.805l5.385-0.202c2.199-0.305,3.622-2.166,4.131-3.69l1.795,0.305L577.336,181.506z"/>
		<path fill="#FFFFFF" d="M609.095,181.506h-9.683c-0.134-0.573-0.168-1.083-0.168-1.69l2.232-0.677
			c0.679-0.203,1.016-0.914,1.016-1.694c0-0.305-0.066-0.574-0.169-0.914l-1.454-4.536h-8.195l-1.828,4.705
			c-0.101,0.271-0.169,0.509-0.169,0.745c0,0.88,0.644,1.491,1.591,1.795l2.031,0.576c0,0.406-0.034,1.218-0.168,1.69H585.7
			c-0.104-0.508-0.104-1.116-0.104-1.625c0.982-0.812,1.626-1.521,2.065-2.537l8.195-19.399l3.757-0.948l7.382,20.077
			c0.337,0.948,1.319,2.098,2.269,2.809C609.266,180.32,609.23,181.032,609.095,181.506z M597.99,163.157l-0.711-2.708h-0.237
			l-0.88,2.64l-2.54,6.533h6.468L597.99,163.157z"/>
	</g>
</g>
</svg>
