<?xml version="1.0" encoding="utf-8"?>
<!-- Generator: Adobe Illustrator 16.0.0, SVG Export Plug-In . SVG Version: 6.00 Build 0)  -->
<!DOCTYPE svg PUBLIC "-//W3C//DTD SVG 1.1//EN" "http://www.w3.org/Graphics/SVG/1.1/DTD/svg11.dtd">
<svg version="1.1" id="Capa_1" xmlns="http://www.w3.org/2000/svg" xmlns:xlink="http://www.w3.org/1999/xlink" x="0px" y="0px"
	 width="612px" height="612px" viewBox="90 0 612 612" enable-background="new 90 0 612 612" xml:space="preserve">
<g>
	<g>
		<path fill="#C29E57" d="M668.787,263.302H438.696V33.21c0-10.481-14.232-33.209-42.698-33.209
			c-28.465,0-42.698,22.729-42.698,33.209v230.093H123.209C112.729,263.302,90,277.535,90,305.999s22.729,42.698,33.209,42.698
			h230.093v230.093c0,10.479,14.231,33.21,42.698,33.21c28.466,0,42.698-22.73,42.698-33.21V348.696h230.093
			c10.479,0,33.209-14.231,33.209-42.698C702,277.533,679.268,263.302,668.787,263.302z"/>
	</g>
</g>
</svg>
