<?xml version="1.0" encoding="utf-8"?>
<!-- Generator: Adobe Illustrator 16.0.0, SVG Export Plug-In . SVG Version: 6.00 Build 0)  -->
<!DOCTYPE svg PUBLIC "-//W3C//DTD SVG 1.1//EN" "http://www.w3.org/Graphics/SVG/1.1/DTD/svg11.dtd">
<svg version="1.1" id="Capa_1" xmlns="http://www.w3.org/2000/svg" xmlns:xlink="http://www.w3.org/1999/xlink" x="0px" y="0px"
	 width="549.907px" height="549.908px" viewBox="0 0 549.907 549.908" enable-background="new 0 0 549.907 549.908"
	 xml:space="preserve">
<g>
	<path fill="#CE9F51" d="M110.534,220.962c0-49.027,39.741-88.768,88.768-88.768c49.027,0,88.768,39.741,88.768,88.768
		c0,49.026-39.741,88.769-88.768,88.769C150.275,309.73,110.534,269.989,110.534,220.962z M236.968,315.783h-75.327
		c-62.668,0-113.655,50.985-113.655,113.646v92.144l0.236,1.437l6.36,1.985c59.796,18.679,111.764,24.914,154.531,24.914
		c83.531,0,131.94-23.82,134.938-25.333l5.939-3.016l0.627,0.007v-92.138C350.618,366.769,299.631,315.783,236.968,315.783z
		 M350.618,177.533c49.023,0,88.768-39.741,88.768-88.768C439.385,39.741,399.641,0,350.618,0s-88.769,39.741-88.769,88.765
		C261.85,137.792,301.594,177.533,350.618,177.533z M388.28,183.585h-75.326c-1.797,0-3.547,0.189-5.32,0.275
		c6.811,14.295,10.74,30.225,10.74,47.094c0,31.129-13.057,59.205-33.922,79.229c48.823,14.523,86.145,55.986,94.639,107.08
		c71.998-3.145,113.504-23.489,116.266-24.885l5.939-3.015l0.625,0.012v-92.137C501.932,234.575,450.946,183.585,388.28,183.585z"/>
</g>
</svg>
