<?xml version="1.0" encoding="utf-8"?>
<!-- Generator: Adobe Illustrator 16.0.0, SVG Export Plug-In . SVG Version: 6.00 Build 0)  -->
<!DOCTYPE svg PUBLIC "-//W3C//DTD SVG 1.1//EN" "http://www.w3.org/Graphics/SVG/1.1/DTD/svg11.dtd">
<svg version="1.1" id="Capa_1" xmlns="http://www.w3.org/2000/svg" xmlns:xlink="http://www.w3.org/1999/xlink" x="0px" y="0px"
	 width="792px" height="192px" viewBox="0 0 792 192" enable-background="new 0 0 792 192" xml:space="preserve">
<path fill-rule="evenodd" clip-rule="evenodd" fill="#FFFFFF" d="M396.252,167.212c-8.334,0.001-14.988-3.428-20.031-10.373
	c-4.831-6.652-7.666-15.546-8.19-26.526c-1.201-24.917,5.362-47.653,21.625-66.755c-13.608-14.083-33.045-25.558-57.858-32.831
	c-25.386-7.455-56.387-8.256-90.216-0.783c-9.93,2.192-20.039,5.757-29.899,10.6c-9.88,4.852-19.038,10.796-27.131,17.568
	c-8.048,6.734-14.651,14.287-19.617,22.312c-4.921,7.958-7.588,16.437-8.056,25.103c-0.012,0.222-0.024,0.443-0.034,0.665
	c-0.17,0.192-0.338,0.386-0.507,0.579c-0.769,0.88-1.556,1.47-2.404,1.802c-0.801,0.311-3.519,1.082-4.847-2.257
	c-0.031-0.079-0.063-0.157-0.093-0.235c-0.005-0.086-0.009-0.173-0.014-0.259c-0.396-7.897,1.366-16.343,5.441-25.034
	c4.05-8.63,10.015-17.156,17.783-25.188c7.763-8.03,17.488-15.51,28.863-22.017c11.407-6.527,24.309-11.471,38.109-14.517
	c28.674-6.348,59.078-6.229,88.483,0.512c28.422,6.497,51.66,19.464,68.595,37.057c16.937-17.594,40.184-30.562,68.601-37.056
	c29.405-6.742,59.802-6.859,88.476-0.512c13.8,3.046,26.706,7.99,38.104,14.515c11.374,6.506,21.096,13.986,28.867,22.018
	c7.784,8.05,13.743,16.575,17.78,25.188c4.075,8.694,5.841,17.139,5.441,25.035c-0.004,0.085-0.008,0.172-0.014,0.258
	c-0.03,0.078-0.062,0.157-0.093,0.235c-1.33,3.339-4.042,2.569-4.844,2.258c-0.85-0.331-1.632-0.921-2.404-1.802
	c-0.168-0.192-0.336-0.386-0.504-0.577c-0.013-0.222-0.024-0.444-0.036-0.665c-0.472-8.688-3.15-17.168-8.062-25.106
	c-4.965-8.024-11.564-15.577-19.616-22.311c-8.085-6.769-17.243-12.713-27.13-17.568c-9.854-4.842-19.965-8.407-29.896-10.599
	c-33.827-7.473-64.825-6.672-90.221,0.781c-24.814,7.278-44.249,18.754-57.857,32.832c16.265,19.103,22.835,41.837,21.631,66.755
	c-0.524,10.976-3.361,19.869-8.192,26.527C411.238,163.784,404.592,167.214,396.252,167.212z M396.253,71.251
	c-14.453,17.429-20.555,36.911-19.866,57.274c0.358,10.622,2.737,18.188,6.927,22.552c4.171,4.342,8.354,6.444,12.938,6.444
	c4.582,0,8.766-2.103,12.939-6.443c4.188-4.367,6.568-11.932,6.926-22.553C416.803,108.164,410.7,88.683,396.253,71.251z
	 M582.729,157.919c-24.209-8.399-47.463-18.282-70.165-29.881c-22.647-11.571-42.504-23.618-59.042-36.913
	c-1.118-0.66-1.779-1.379-2.006-2.201c-0.183-0.667-0.061-1.356,0.352-1.94c0.581-0.84,1.641-1.284,2.824-1.171
	c0.698,0.067,1.446,0.326,2.281,0.795c0.032,0.018,0.062,0.037,0.096,0.054c0.029,0.021,0.061,0.042,0.09,0.062
	c38.078,26.441,78.563,45.753,125.5,61.698c15.301,5.213,32.063,9.469,50.234,13.083c18.146,3.609,35.901,5.928,53.123,6.695
	c17.141,0.76,33.146-0.331,47.661-3.741c14.278-3.345,25.598-10.357,33.155-21.611c7.057-10.512,10.16-22.659,8.634-36.206
	c-1.485-13.271-11.513-25.673-30.664-36.389c-6.064-3.385-12.983-5.791-20.479-7.085c-7.271-1.25-13.298-0.099-18.37,3.4
	c-0.209,0.144-0.418,0.289-0.626,0.432c-0.307-0.03-0.611-0.061-0.918-0.091c-1.187-0.118-2.153-0.362-2.957-0.753
	c-1.06-0.515-1.838-1.286-2.2-2.176c-0.641-1.59,0.293-2.951,1.058-3.834c0.057-0.066,0.113-0.132,0.17-0.197
	c0.079-0.047,0.159-0.094,0.238-0.141c7.505-4.42,15.791-5.643,24.469-3.531c8.238,2,16.761,5.414,25.206,10.175
	c17.006,9.583,29.051,22.829,35.313,38.364c6.313,15.632,3.521,31.413-7.357,46.823c-8.573,12.188-21.014,19.981-36.396,24.049
	c-15.234,4.019-31.866,5.366-49.554,4.539c-17.597-0.84-36.008-3.438-55.093-7.413C618.243,168.836,600.051,163.928,582.729,157.919
	z M209.777,157.919c-17.323,6.009-35.516,10.916-54.575,14.892c-19.086,3.976-37.492,6.573-55.092,7.411
	c-17.688,0.83-34.32-0.518-49.552-4.54c-15.385-4.062-27.825-11.854-36.401-24.045c-10.875-15.407-13.67-31.189-7.36-46.821
	c6.263-15.537,18.312-28.782,35.315-38.365c8.452-4.764,16.974-8.179,25.208-10.177c8.667-2.11,16.953-0.887,24.469,3.53
	c0.08,0.047,0.16,0.094,0.239,0.141c0.058,0.066,0.115,0.133,0.172,0.199c0.761,0.884,1.697,2.246,1.053,3.836
	c-0.359,0.888-1.138,1.659-2.196,2.173c-0.803,0.39-1.77,0.634-2.956,0.752c-0.306,0.03-0.611,0.061-0.916,0.091
	c-0.208-0.144-0.417-0.288-0.625-0.432c-5.074-3.498-11.104-4.649-18.382-3.396c-7.488,1.294-14.411,3.7-20.472,7.083
	c-19.151,10.717-29.18,23.119-30.667,36.391c-1.528,13.549,1.572,25.696,8.632,36.207c7.555,11.253,18.878,18.265,33.156,21.61
	c14.516,3.408,30.522,4.5,47.661,3.741c17.228-0.771,34.982-3.087,53.125-6.696c18.164-3.61,34.927-7.867,50.229-13.081
	c46.938-15.944,87.428-35.259,125.512-61.7c0.03-0.02,0.06-0.041,0.089-0.062c0.031-0.017,0.062-0.035,0.094-0.053
	c0.836-0.47,1.583-0.73,2.28-0.796c1.178-0.112,2.235,0.328,2.829,1.176c0.271,0.394,1.383,2.345-1.665,4.137
	c-16.529,13.294-36.383,25.34-59.043,36.914C257.242,139.637,233.987,149.519,209.777,157.919z"/>
</svg>
