<?xml version="1.0" encoding="utf-8"?>
<!-- Generator: Adobe Illustrator 16.0.0, SVG Export Plug-In . SVG Version: 6.00 Build 0)  -->
<!DOCTYPE svg PUBLIC "-//W3C//DTD SVG 1.1//EN" "http://www.w3.org/Graphics/SVG/1.1/DTD/svg11.dtd">
<svg version="1.1" id="Capa_1" xmlns="http://www.w3.org/2000/svg" xmlns:xlink="http://www.w3.org/1999/xlink" x="0px" y="0px"
	 width="307.02px" height="307.02px" viewBox="0 0 307.02 307.02" enable-background="new 0 0 307.02 307.02" xml:space="preserve">
<path fill="#CE9F51" d="M211.308,64.447c0.192-1.041,0.311-2.105,0.311-3.209c0-2.125-0.112-4.22-0.311-6.296V52.52
	c0-0.001-0.138-0.07-0.381-0.168C206.823,22.787,182.678,0,153.51,0c-32.034,0-58.107,27.472-58.107,61.233
	c0,9.227,7.093,16.702,15.85,16.702s15.846-7.475,15.846-16.702c0-15.343,11.851-27.835,26.413-27.835
	c14.568,0,26.416,12.487,26.416,27.835c-0.341,23.25-54.599,32.334-54.599,32.334l0.024,0.056
	c-15.546,3.065-27.34,17.613-27.34,35.183v142.379c0,19.793,14.949,35.834,33.397,35.834h46.799
	c17.22,0,31.233-14.029,33.042-31.985l0.057,0.112v-0.701c0.096-1.088,0.311-2.144,0.311-3.26V128.806
	c0-1.117-0.215-2.174-0.311-3.266V64.447z"/>
</svg>
