<?xml version="1.0" encoding="utf-8"?>
<!-- Generator: Adobe Illustrator 16.0.0, SVG Export Plug-In . SVG Version: 6.00 Build 0)  -->
<!DOCTYPE svg PUBLIC "-//W3C//DTD SVG 1.1//EN" "http://www.w3.org/Graphics/SVG/1.1/DTD/svg11.dtd">
<svg version="1.1" id="Capa_1" xmlns="http://www.w3.org/2000/svg" xmlns:xlink="http://www.w3.org/1999/xlink" x="0px" y="0px"
	 width="623px" height="423px" viewBox="83.5 93.5 623 423" enable-background="new 83.5 93.5 623 423" xml:space="preserve">
<g>
	<g>
		<rect x="90" y="440.569" fill="#C29E57" width="612" height="71.778"/>
	</g>
</g>
<g>
	<g>
		<path fill="#C29E57" d="M587.28,232.329c-43.901-43.902-100.303-70.751-161.177-77.264c3.653-5.62,5.783-12.322,5.783-19.525
			c0-19.821-16.067-35.888-35.888-35.888c-19.821,0-35.888,16.067-35.888,35.888c0,7.203,2.13,13.905,5.783,19.525
			c-60.873,6.512-117.274,33.361-161.176,77.264c-46.585,46.585-73.973,107.243-78.229,172.386H665.51l0,0
			C661.253,339.572,633.865,278.914,587.28,232.329z"/>
	</g>
</g>
</svg>
